# xmcd
#
# Track frame offsets: 
#        150
#        46351
#        72843
#        98824
#        129522
#        166531
#        254862
#        280425
#
# Disc length: 4112 seconds
#
# Revision: 0
# Processed by: cddbd v1.5.2PL0 Copyright (c) Steve Scherf et al.
# Submitted via: ExactAudioCopy v0.95b4
#
DISCID=71100e08
DTITLE=Wishbone Ash  - Argus Deluxe Edition Remaster - Disc 2
DYEAR=1900
DGENRE=
TTITLE0=Time Was (Live)
TTITLE1=Blowin' Free (Live)
TTITLE2=Warrior (Live)
TTITLE3=Throw Down The Sword (Live)
TTITLE4=The King Will Come (Live)
TTITLE5=Phoenix (Live)
TTITLE6=Blowin 'Free (BBC Session)
TTITLE7=Throw Down The Sword (BBC Session)
EXTD=
EXTT0=
EXTT1=
EXTT2=
EXTT3=
EXTT4=
EXTT5=
EXTT6=
EXTT7=
PLAYORDER=
